<svg xmlns="http://www.w3.org/2000/svg" xmlns:xlink="http://www.w3.org/1999/xlink" width="100" zoomAndPan="magnify" viewBox="0 0 75 74.999997" height="100" preserveAspectRatio="xMidYMid meet" version="1.0"><defs><clipPath id="3322d8236a"><path d="M 0.75 1 L 74 1 L 74 75 L 0.75 75 Z M 0.75 1 " clip-rule="nonzero"/></clipPath></defs><path fill="#ffffff" d="M 68.316406 37.125 C 68.316406 38.167969 68.265625 39.207031 68.164062 40.246094 C 68.0625 41.28125 67.910156 42.3125 67.707031 43.335938 C 67.507812 44.359375 67.253906 45.367188 66.953125 46.367188 C 66.652344 47.363281 66.304688 48.34375 65.910156 49.308594 C 65.511719 50.269531 65.070312 51.210938 64.582031 52.132812 C 64.09375 53.050781 63.5625 53.945312 62.988281 54.8125 C 62.410156 55.679688 61.796875 56.515625 61.136719 57.320312 C 60.480469 58.128906 59.785156 58.898438 59.054688 59.636719 C 58.320312 60.375 57.554688 61.074219 56.753906 61.734375 C 55.953125 62.394531 55.125 63.015625 54.261719 63.59375 C 53.402344 64.175781 52.515625 64.710938 51.601562 65.203125 C 50.6875 65.691406 49.753906 66.136719 48.796875 66.539062 C 47.839844 66.9375 46.863281 67.289062 45.875 67.589844 C 44.882812 67.894531 43.878906 68.144531 42.863281 68.347656 C 41.847656 68.550781 40.824219 68.707031 39.792969 68.808594 C 38.761719 68.910156 37.730469 68.960938 36.695312 68.960938 C 35.660156 68.960938 34.625 68.910156 33.59375 68.808594 C 32.5625 68.707031 31.542969 68.550781 30.523438 68.347656 C 29.507812 68.144531 28.507812 67.894531 27.515625 67.589844 C 26.523438 67.289062 25.550781 66.9375 24.59375 66.539062 C 23.636719 66.136719 22.703125 65.691406 21.789062 65.203125 C 20.875 64.710938 19.988281 64.175781 19.125 63.59375 C 18.265625 63.015625 17.433594 62.394531 16.632812 61.734375 C 15.832031 61.074219 15.066406 60.375 14.335938 59.636719 C 13.601562 58.898438 12.90625 58.128906 12.25 57.320312 C 11.59375 56.515625 10.976562 55.679688 10.402344 54.8125 C 9.828125 53.945312 9.292969 53.050781 8.804688 52.132812 C 8.316406 51.210938 7.875 50.269531 7.480469 49.308594 C 7.082031 48.34375 6.734375 47.363281 6.433594 46.367188 C 6.132812 45.367188 5.882812 44.359375 5.679688 43.335938 C 5.476562 42.3125 5.328125 41.28125 5.226562 40.246094 C 5.125 39.207031 5.074219 38.167969 5.074219 37.125 C 5.074219 36.082031 5.125 35.042969 5.226562 34.003906 C 5.328125 32.96875 5.476562 31.9375 5.679688 30.914062 C 5.882812 29.890625 6.132812 28.882812 6.433594 27.882812 C 6.734375 26.886719 7.082031 25.90625 7.480469 24.941406 C 7.875 23.980469 8.316406 23.039062 8.804688 22.117188 C 9.292969 21.199219 9.828125 20.304688 10.402344 19.4375 C 10.976562 18.570312 11.59375 17.734375 12.25 16.929688 C 12.90625 16.121094 13.601562 15.351562 14.335938 14.613281 C 15.066406 13.875 15.832031 13.175781 16.632812 12.515625 C 17.433594 11.855469 18.265625 11.234375 19.125 10.65625 C 19.988281 10.074219 20.875 9.539062 21.789062 9.046875 C 22.703125 8.554688 23.636719 8.113281 24.59375 7.710938 C 25.550781 7.3125 26.523438 6.960938 27.515625 6.660156 C 28.507812 6.355469 29.507812 6.105469 30.523438 5.902344 C 31.542969 5.699219 32.5625 5.542969 33.59375 5.441406 C 34.625 5.339844 35.660156 5.289062 36.695312 5.289062 C 37.730469 5.289062 38.761719 5.339844 39.792969 5.441406 C 40.824219 5.542969 41.847656 5.699219 42.863281 5.902344 C 43.878906 6.105469 44.882812 6.355469 45.875 6.660156 C 46.863281 6.960938 47.839844 7.3125 48.796875 7.710938 C 49.753906 8.113281 50.6875 8.554688 51.601562 9.046875 C 52.515625 9.539062 53.402344 10.074219 54.261719 10.65625 C 55.125 11.234375 55.953125 11.855469 56.753906 12.515625 C 57.554688 13.175781 58.320312 13.875 59.054688 14.613281 C 59.785156 15.351562 60.480469 16.121094 61.136719 16.929688 C 61.796875 17.734375 62.410156 18.570312 62.988281 19.4375 C 63.5625 20.304688 64.09375 21.199219 64.582031 22.117188 C 65.070312 23.039062 65.511719 23.980469 65.910156 24.941406 C 66.304688 25.90625 66.652344 26.886719 66.953125 27.882812 C 67.253906 28.882812 67.507812 29.890625 67.707031 30.914062 C 67.910156 31.9375 68.0625 32.96875 68.164062 34.003906 C 68.265625 35.042969 68.316406 36.082031 68.316406 37.125 Z M 68.316406 37.125 " fill-opacity="1" fill-rule="nonzero"/><g clip-path="url(#3322d8236a)"><path fill="#38a37f" d="M 64.457031 13.933594 C 64.003906 13.414062 63.535156 12.910156 63.054688 12.417969 C 62.574219 11.925781 62.082031 11.445312 61.574219 10.980469 C 61.066406 10.519531 60.546875 10.066406 60.011719 9.632812 C 59.480469 9.199219 58.9375 8.78125 58.378906 8.375 C 57.824219 7.972656 57.257812 7.585938 56.679688 7.214844 C 56.101562 6.839844 55.511719 6.488281 54.914062 6.148438 C 54.316406 5.8125 53.710938 5.492188 53.09375 5.1875 C 52.476562 4.882812 51.851562 4.597656 51.222656 4.332031 C 50.589844 4.0625 49.949219 3.8125 49.304688 3.582031 C 48.65625 3.351562 48.003906 3.136719 47.347656 2.941406 C 46.6875 2.75 46.027344 2.574219 45.359375 2.417969 C 44.691406 2.261719 44.019531 2.121094 43.34375 2.003906 C 42.667969 1.886719 41.988281 1.789062 41.308594 1.707031 C 40.625 1.628906 39.945312 1.566406 39.257812 1.527344 C 38.574219 1.488281 37.890625 1.464844 37.203125 1.464844 C 36.519531 1.460938 35.832031 1.480469 35.148438 1.515625 C 34.464844 1.554688 33.78125 1.613281 33.097656 1.6875 C 32.417969 1.765625 31.738281 1.859375 31.0625 1.976562 C 30.386719 2.089844 29.714844 2.222656 29.042969 2.378906 C 28.375 2.53125 27.710938 2.703125 27.054688 2.894531 C 26.394531 3.085938 25.742188 3.292969 25.09375 3.523438 C 24.445312 3.75 23.804688 3.996094 23.171875 4.261719 C 22.539062 4.527344 21.914062 4.808594 21.296875 5.109375 C 20.679688 5.410156 20.070312 5.726562 19.472656 6.0625 C 18.871094 6.398438 18.28125 6.75 17.703125 7.117188 C 17.121094 7.488281 16.550781 7.871094 15.996094 8.273438 C 15.4375 8.675781 14.890625 9.089844 14.355469 9.523438 C 13.820312 9.953125 13.296875 10.402344 12.789062 10.863281 C 12.277344 11.324219 11.78125 11.800781 11.300781 12.292969 C 10.816406 12.78125 10.347656 13.285156 9.894531 13.800781 C 9.4375 14.320312 9 14.847656 8.574219 15.390625 C 8.148438 15.933594 7.738281 16.484375 7.34375 17.050781 C 6.523438 18.230469 5.769531 19.453125 5.085938 20.71875 C 2.496094 25.5625 1.070312 30.726562 0.808594 36.21875 C 0.777344 36.835938 0.757812 37.460938 0.757812 38.082031 C 0.757812 38.820312 0.78125 39.554688 0.824219 40.292969 C 0.871094 41.027344 0.933594 41.761719 1.023438 42.492188 C 1.109375 43.222656 1.222656 43.953125 1.351562 44.675781 C 1.484375 45.402344 1.636719 46.121094 1.8125 46.835938 C 1.988281 47.554688 2.183594 48.261719 2.398438 48.964844 C 2.617188 49.667969 2.855469 50.367188 3.113281 51.054688 C 3.375 51.746094 3.652344 52.425781 3.953125 53.097656 C 4.253906 53.769531 4.574219 54.433594 4.914062 55.085938 C 5.253906 55.738281 5.613281 56.378906 5.988281 57.011719 C 6.367188 57.640625 6.765625 58.261719 7.179688 58.867188 C 7.59375 59.472656 8.027344 60.066406 8.480469 60.648438 C 8.929688 61.230469 9.398438 61.796875 9.882812 62.347656 C 10.367188 62.898438 10.867188 63.4375 11.382812 63.957031 C 11.902344 64.480469 12.433594 64.984375 12.980469 65.472656 C 13.527344 65.964844 14.089844 66.4375 14.664062 66.890625 C 15.242188 67.347656 15.828125 67.785156 16.429688 68.203125 C 17.035156 68.621094 17.648438 69.023438 18.273438 69.40625 C 18.898438 69.789062 19.535156 70.148438 20.183594 70.492188 C 20.832031 70.835938 21.488281 71.160156 22.15625 71.464844 C 22.820312 71.769531 23.496094 72.050781 24.179688 72.3125 C 24.867188 72.574219 25.554688 72.816406 26.253906 73.039062 C 26.953125 73.257812 27.65625 73.457031 28.367188 73.632812 C 29.078125 73.8125 29.792969 73.96875 30.511719 74.101562 C 31.234375 74.234375 31.957031 74.347656 32.683594 74.4375 C 33.410156 74.527344 34.136719 74.597656 34.867188 74.644531 C 35.597656 74.6875 36.328125 74.710938 37.0625 74.714844 C 37.792969 74.714844 38.523438 74.695312 39.253906 74.652344 C 39.988281 74.609375 40.714844 74.542969 41.441406 74.457031 C 42.167969 74.371094 42.890625 74.261719 43.613281 74.128906 C 44.332031 74 45.046875 73.84375 45.757812 73.671875 C 46.472656 73.496094 47.175781 73.300781 47.875 73.082031 C 48.574219 72.863281 49.265625 72.625 49.953125 72.367188 C 50.636719 72.105469 51.3125 71.828125 51.980469 71.527344 C 52.648438 71.226562 53.308594 70.90625 53.957031 70.5625 C 54.605469 70.222656 55.246094 69.863281 55.871094 69.484375 C 56.5 69.105469 57.113281 68.707031 57.71875 68.289062 C 58.320312 67.871094 58.914062 67.4375 59.488281 66.984375 C 60.066406 66.53125 60.628906 66.0625 61.179688 65.574219 C 61.730469 65.085938 62.261719 64.582031 62.78125 64.0625 C 63.300781 63.542969 63.804688 63.011719 64.292969 62.460938 C 64.777344 61.910156 65.25 61.34375 65.703125 60.765625 C 66.15625 60.1875 66.589844 59.597656 67.007812 58.992188 C 67.425781 58.386719 67.824219 57.769531 68.207031 57.140625 C 68.585938 56.511719 68.949219 55.871094 69.289062 55.21875 C 69.632812 54.566406 69.957031 53.90625 70.257812 53.234375 C 70.5625 52.5625 70.84375 51.882812 71.105469 51.195312 C 71.367188 50.507812 71.609375 49.8125 71.828125 49.109375 C 72.046875 48.40625 72.246094 47.699219 72.425781 46.984375 C 72.601562 46.269531 72.757812 45.550781 72.894531 44.824219 C 73.027344 44.101562 73.140625 43.371094 73.230469 42.640625 C 73.324219 41.910156 73.390625 41.175781 73.4375 40.441406 C 73.484375 39.707031 73.511719 38.96875 73.511719 38.234375 C 73.515625 37.496094 73.496094 36.761719 73.457031 36.023438 C 73.414062 35.289062 73.351562 34.554688 73.265625 33.824219 C 73.179688 33.089844 73.074219 32.363281 72.945312 31.636719 C 72.816406 30.910156 72.664062 30.191406 72.492188 29.472656 C 72.320312 28.757812 72.125 28.046875 71.910156 27.34375 C 71.699219 26.640625 71.460938 25.941406 71.203125 25.25 C 70.949219 24.5625 70.671875 23.878906 70.375 23.207031 C 70.078125 22.53125 69.757812 21.871094 69.421875 21.214844 C 69.085938 20.5625 68.726562 19.917969 68.351562 19.285156 C 67.976562 18.652344 67.582031 18.035156 67.167969 17.425781 C 66.753906 16.816406 66.324219 16.222656 65.875 15.640625 C 65.425781 15.058594 64.960938 14.488281 64.480469 13.933594 Z M 24.988281 43.136719 C 28.058594 45.3125 30.9375 46.613281 33.90625 47.097656 L 33.90625 41.289062 C 26.183594 39.503906 22.253906 36.851562 22.253906 30.863281 L 22.253906 30.765625 C 22.253906 25.070312 26.378906 21.109375 33.71875 20.578125 L 33.71875 17.828125 L 38.707031 17.828125 L 38.707031 20.722656 C 42.394531 21.113281 45.765625 22.367188 48.820312 24.492188 L 44.886719 30.957031 C 42.921875 29.601562 40.78125 28.644531 38.464844 28.085938 L 38.464844 33.6875 C 46.070312 35.472656 49.921875 38.226562 49.921875 44.21875 L 49.921875 44.316406 C 49.921875 50.203125 45.414062 53.824219 38.605469 54.457031 L 38.605469 59.183594 L 33.621094 59.183594 L 33.621094 54.324219 C 31.296875 54.101562 29.035156 53.582031 26.84375 52.773438 C 24.648438 51.960938 22.59375 50.882812 20.675781 49.539062 Z M 24.988281 43.136719 " fill-opacity="1" fill-rule="nonzero"/></g><path fill="#38a37f" d="M 41.628906 44.914062 L 41.628906 44.816406 C 41.628906 43.511719 40.90625 42.789062 38.414062 42.066406 L 38.414062 47.375 C 40.621094 47.136719 41.628906 46.3125 41.628906 44.914062 Z M 41.628906 44.914062 " fill-opacity="1" fill-rule="nonzero"/><path fill="#38a37f" d="M 33.957031 27.625 C 31.605469 27.824219 30.695312 28.789062 30.695312 30.042969 L 30.695312 30.140625 C 30.695312 31.394531 31.367188 32.117188 33.957031 32.84375 Z M 33.957031 27.625 " fill-opacity="1" fill-rule="nonzero"/></svg>